<?xml version="1.0" encoding="UTF-8" standalone="no"?>
<!-- Created with Inkscape (http://www.inkscape.org/) -->

<svg
   width="26"
   height="26"
   viewBox="0 0 6.8791662 6.879167"
   version="1.1"
   id="svg1"
   xml:space="preserve"
   inkscape:version="1.3 (0e150ed6c4, 2023-07-21)"
   sodipodi:docname="check.svg"
   xmlns:inkscape="http://www.inkscape.org/namespaces/inkscape"
   xmlns:sodipodi="http://sodipodi.sourceforge.net/DTD/sodipodi-0.dtd"
   xmlns="http://www.w3.org/2000/svg"
   xmlns:svg="http://www.w3.org/2000/svg"><sodipodi:namedview
     id="namedview1"
     pagecolor="#ffffff"
     bordercolor="#666666"
     borderopacity="1.0"
     inkscape:showpageshadow="2"
     inkscape:pageopacity="0.0"
     inkscape:pagecheckerboard="0"
     inkscape:deskcolor="#d1d1d1"
     inkscape:document-units="px"
     inkscape:zoom="3.8186031"
     inkscape:cx="18.331311"
     inkscape:cy="0.91656553"
     inkscape:window-width="1920"
     inkscape:window-height="1017"
     inkscape:window-x="1912"
     inkscape:window-y="-8"
     inkscape:window-maximized="1"
     inkscape:current-layer="layer1" /><defs
     id="defs1" /><g
     inkscape:label="Layer 1"
     inkscape:groupmode="layer"
     id="layer1"><rect
       style="font-variation-settings:'slnt' -10, 'wght' 700;fill:none;stroke-width:2.64583;stroke-linecap:round;stroke-miterlimit:5;paint-order:markers fill stroke"
       id="rect1"
       width="6.8791666"
       height="6.8791666"
       x="6.1506697e-05"
       y="-5.0186166e-09" /><path
       style="fill:#000000;stroke-width:0.999988"
       d="M 2.2709173,5.1048806 C 2.2188837,5.0960743 2.1726922,5.0726571 2.0604856,4.9982021 1.971332,4.9390441 1.8323293,4.8178931 1.7753214,4.7496607 1.7439613,4.7121262 1.7257379,4.6650807 1.7256454,4.6214183 1.7256175,4.60823 1.7066979,4.4382774 1.6836015,4.2437448 1.6458644,3.9258964 1.6411501,3.8640802 1.6370904,3.6338131 1.6324661,3.3714719 1.6402382,3.2535404 1.6653589,3.2051305 1.6819561,3.17314 1.8208557,3.0061745 1.892961,2.931539 1.923543,2.899884 1.965298,2.864055 1.985753,2.851918 2.082998,2.794214 2.303673,2.770015 2.3771641,2.808996 c 0.043053,0.022835 0.092578,0.0757 0.09854,0.1051855 0.00227,0.011167 0.00617,0.055119 0.00867,0.097664 0.0067,0.1135043 0.1035176,0.6884147 0.1235745,0.7337538 0.021742,0.049152 0.076485,0.086532 0.1349523,0.092151 0.041744,0.00402 0.044894,0.00253 0.1021602,-0.048433 C 2.8775558,3.7604021 3.1621523,3.4843674 3.4774946,3.1759053 4.4029393,2.2706513 4.5391841,2.1411593 4.7459808,1.97029 4.8526427,1.8821593 4.9569245,1.8013308 4.9777184,1.7906716 c 0.075318,-0.038608 0.2286929,-0.030521 0.253796,0.013384 0.013368,0.023381 0.016751,0.4595714 0.00403,0.5198174 C 5.2296044,2.352004 5.2077534,2.380409 5.1305306,2.4603816 5.0768996,2.515923 4.9821682,2.6166531 4.9200179,2.6842251 4.8578679,2.7517965 4.5505851,3.0773694 4.2371678,3.4077198 3.7104828,3.9628602 3.5026109,4.1708511 2.9268982,4.7187395 2.7303294,4.9058082 2.5660489,5.0363014 2.4675656,5.0836015 2.4008446,5.1156477 2.360395,5.1200246 2.2709173,5.1048806 Z"
       id="path1" /></g></svg>
